<svg width="30" height="30" viewBox="0 0 30 30" fill="none" xmlns="http://www.w3.org/2000/svg">
<rect width="30" height="30" rx="8" fill="#1D4BAE"/>
<rect width="30" height="29" rx="8" fill="#3B82F6"/>
<path d="M6.99999 17C6.81076 17.0006 6.62522 16.9476 6.46495 16.847C6.30467 16.7464 6.17623 16.6023 6.09454 16.4316C6.01286 16.2609 5.98129 16.0706 6.00349 15.8826C6.0257 15.6947 6.10077 15.5169 6.21999 15.37L16.12 5.16998C16.1943 5.08426 16.2955 5.02634 16.407 5.00571C16.5185 4.98509 16.6337 5.00299 16.7337 5.05648C16.8337 5.10998 16.9126 5.19588 16.9573 5.30009C17.0021 5.4043 17.0101 5.52063 16.98 5.62998L15.06 11.65C15.0034 11.8015 14.9844 11.9645 15.0046 12.125C15.0248 12.2855 15.0837 12.4387 15.1761 12.5714C15.2685 12.7042 15.3918 12.8125 15.5353 12.8871C15.6788 12.9618 15.8382 13.0005 16 13H23C23.1892 12.9993 23.3748 13.0524 23.535 13.153C23.6953 13.2536 23.8238 13.3976 23.9054 13.5683C23.9871 13.739 24.0187 13.9294 23.9965 14.1173C23.9743 14.3053 23.8992 14.483 23.78 14.63L13.88 24.83C13.8057 24.9157 13.7045 24.9736 13.593 24.9942C13.4815 25.0149 13.3663 24.997 13.2663 24.9435C13.1663 24.89 13.0874 24.8041 13.0427 24.6999C12.9979 24.5957 12.9899 24.4793 13.02 24.37L14.94 18.35C14.9966 18.1985 15.0156 18.0355 14.9954 17.875C14.9752 17.7145 14.9163 17.5613 14.8239 17.4286C14.7315 17.2958 14.6082 17.1875 14.4647 17.1128C14.3212 17.0382 14.1617 16.9995 14 17H6.99999Z" stroke="white" stroke-width="2" stroke-linecap="round" stroke-linejoin="round"/>
</svg>
